<mxfile host="app.diagrams.net" modified="2023-06-02T02:19:07.142Z" agent="Mozilla/5.0 (Windows NT 10.0; Win64; x64) AppleWebKit/537.36 (KHTML, like Gecko) Chrome/112.0.0.0 Safari/537.36" etag="5DjD3F-jEM2J0OM46moM" version="21.3.5" type="device">
  <diagram name="Trang-1" id="81Z2lxcBCBEYeE6-I3jP">
    <mxGraphModel dx="841" dy="484" grid="1" gridSize="10" guides="1" tooltips="1" connect="1" arrows="1" fold="1" page="1" pageScale="1" pageWidth="827" pageHeight="1169" math="0" shadow="0">
      <root>
        <mxCell id="0" />
        <mxCell id="1" parent="0" />
        <mxCell id="ajSWNAGwgNTRocyUSUlc-1" value="Hotel" style="whiteSpace=wrap;html=1;align=center;" vertex="1" parent="1">
          <mxGeometry x="110" y="280" width="100" height="40" as="geometry" />
        </mxCell>
        <mxCell id="ajSWNAGwgNTRocyUSUlc-2" value="Rooms" style="whiteSpace=wrap;html=1;align=center;" vertex="1" parent="1">
          <mxGeometry x="610" y="280" width="100" height="40" as="geometry" />
        </mxCell>
        <mxCell id="ajSWNAGwgNTRocyUSUlc-4" value="Customer" style="whiteSpace=wrap;html=1;align=center;" vertex="1" parent="1">
          <mxGeometry x="130" y="470" width="100" height="40" as="geometry" />
        </mxCell>
        <mxCell id="ajSWNAGwgNTRocyUSUlc-5" value="has" style="shape=rhombus;perimeter=rhombusPerimeter;whiteSpace=wrap;html=1;align=center;" vertex="1" parent="1">
          <mxGeometry x="360" y="270" width="100" height="60" as="geometry" />
        </mxCell>
        <mxCell id="ajSWNAGwgNTRocyUSUlc-6" value="reserve" style="shape=rhombus;perimeter=rhombusPerimeter;whiteSpace=wrap;html=1;align=center;" vertex="1" parent="1">
          <mxGeometry x="120" y="360" width="80" height="60" as="geometry" />
        </mxCell>
        <mxCell id="ajSWNAGwgNTRocyUSUlc-8" value="Name" style="ellipse;whiteSpace=wrap;html=1;align=center;" vertex="1" parent="1">
          <mxGeometry x="40" y="170" width="100" height="40" as="geometry" />
        </mxCell>
        <mxCell id="ajSWNAGwgNTRocyUSUlc-9" value="Address" style="ellipse;whiteSpace=wrap;html=1;align=center;" vertex="1" parent="1">
          <mxGeometry x="210" y="170" width="100" height="40" as="geometry" />
        </mxCell>
        <mxCell id="ajSWNAGwgNTRocyUSUlc-11" value="" style="endArrow=none;html=1;rounded=0;entryX=0.5;entryY=0;entryDx=0;entryDy=0;" edge="1" parent="1" target="ajSWNAGwgNTRocyUSUlc-1">
          <mxGeometry relative="1" as="geometry">
            <mxPoint x="90" y="210" as="sourcePoint" />
            <mxPoint x="250" y="210" as="targetPoint" />
          </mxGeometry>
        </mxCell>
        <mxCell id="ajSWNAGwgNTRocyUSUlc-15" value="" style="endArrow=none;html=1;rounded=0;entryX=0.5;entryY=0;entryDx=0;entryDy=0;" edge="1" parent="1" target="ajSWNAGwgNTRocyUSUlc-1">
          <mxGeometry relative="1" as="geometry">
            <mxPoint x="250" y="210" as="sourcePoint" />
            <mxPoint x="320" y="280" as="targetPoint" />
          </mxGeometry>
        </mxCell>
        <mxCell id="ajSWNAGwgNTRocyUSUlc-16" value="ID" style="ellipse;whiteSpace=wrap;html=1;align=center;fontStyle=4;" vertex="1" parent="1">
          <mxGeometry x="30" y="545" width="100" height="40" as="geometry" />
        </mxCell>
        <mxCell id="ajSWNAGwgNTRocyUSUlc-17" value="Attribute" style="ellipse;shape=doubleEllipse;margin=3;whiteSpace=wrap;html=1;align=center;" vertex="1" parent="1">
          <mxGeometry x="140" y="545" width="100" height="40" as="geometry" />
        </mxCell>
        <mxCell id="ajSWNAGwgNTRocyUSUlc-18" value="Attribute" style="ellipse;whiteSpace=wrap;html=1;align=center;dashed=1;" vertex="1" parent="1">
          <mxGeometry x="260" y="545" width="100" height="40" as="geometry" />
        </mxCell>
      </root>
    </mxGraphModel>
  </diagram>
</mxfile>
